<svg xmlns="http://www.w3.org/2000/svg" viewBox="0 0 512 512">
  <!-- Фон -->
  <rect width="512" height="512" rx="112" fill="#111111"/>
  <!-- Шестерня -->
  <g transform="translate(256,240)" fill="none" stroke="#F5A623" stroke-width="28" stroke-linecap="round" stroke-linejoin="round">
    <circle cx="0" cy="0" r="54"/>
    <path d="M0,-108 L14,-88 L-14,-88 Z" fill="#F5A623" stroke="none"/>
    <path d="M0,108 L14,88 L-14,88 Z" fill="#F5A623" stroke="none"/>
    <path d="M-108,0 L-88,-14 L-88,14 Z" fill="#F5A623" stroke="none"/>
    <path d="M108,0 L88,-14 L88,14 Z" fill="#F5A623" stroke="none"/>
    <path d="M-76,-76 L-60,-88 L-48,-72 Z" fill="#F5A623" stroke="none"/>
    <path d="M76,76 L60,88 L48,72 Z" fill="#F5A623" stroke="none"/>
    <path d="M76,-76 L88,-60 L72,-48 Z" fill="#F5A623" stroke="none"/>
    <path d="M-76,76 L-88,60 L-72,48 Z" fill="#F5A623" stroke="none"/>
    <circle cx="0" cy="0" r="54" stroke="#F5A623" stroke-width="28" fill="#111111"/>
    <circle cx="0" cy="0" r="26" fill="#F5A623" stroke="none"/>
  </g>
  <!-- Ключ -->
  <g transform="translate(256,240) rotate(-45)">
    <rect x="24" y="-8" width="80" height="16" rx="8" fill="white"/>
    <circle cx="24" cy="0" r="22" fill="none" stroke="white" stroke-width="14"/>
    <rect x="90" y="-14" width="14" height="14" rx="3" fill="white"/>
    <rect x="90" y="0" width="14" height="14" rx="3" fill="white"/>
  </g>
</svg>
